<svg xmlns="http://www.w3.org/2000/svg" viewBox="0 0 32 32" fill="none">
  <rect width="32" height="32" rx="8" fill="#6366f1"/>
  <line x1="8" y1="16" x2="14" y2="10" stroke="#a5b4fc" stroke-width="1.5" stroke-linecap="round"/>
  <line x1="14" y1="10" x2="22" y2="12" stroke="#a5b4fc" stroke-width="1.5" stroke-linecap="round"/>
  <line x1="8" y1="16" x2="14" y2="22" stroke="#a5b4fc" stroke-width="1.5" stroke-linecap="round"/>
  <line x1="14" y1="22" x2="22" y2="20" stroke="#a5b4fc" stroke-width="1.5" stroke-linecap="round"/>
  <line x1="14" y1="10" x2="14" y2="22" stroke="#a5b4fc" stroke-width="1.5" stroke-linecap="round"/>
  <line x1="22" y1="12" x2="22" y2="20" stroke="#a5b4fc" stroke-width="1.5" stroke-linecap="round"/>
  <line x1="22" y1="12" x2="26" y2="16" stroke="#a5b4fc" stroke-width="1.5" stroke-linecap="round"/>
  <line x1="22" y1="20" x2="26" y2="16" stroke="#a5b4fc" stroke-width="1.5" stroke-linecap="round"/>
  <line x1="14" y1="10" x2="16" y2="16" stroke="#a5b4fc" stroke-width="1.5" stroke-linecap="round"/>
  <line x1="14" y1="22" x2="16" y2="16" stroke="#a5b4fc" stroke-width="1.5" stroke-linecap="round"/>
  <line x1="16" y1="16" x2="22" y2="12" stroke="#a5b4fc" stroke-width="1.5" stroke-linecap="round"/>
  <line x1="16" y1="16" x2="22" y2="20" stroke="#a5b4fc" stroke-width="1.5" stroke-linecap="round"/>
  <circle cx="8" cy="16" r="2.5" fill="#e0e7ff"/>
  <circle cx="14" cy="10" r="2.5" fill="#e0e7ff"/>
  <circle cx="14" cy="22" r="2.5" fill="#e0e7ff"/>
  <circle cx="16" cy="16" r="2.5" fill="#ffffff"/>
  <circle cx="22" cy="12" r="2.5" fill="#e0e7ff"/>
  <circle cx="22" cy="20" r="2.5" fill="#e0e7ff"/>
  <circle cx="26" cy="16" r="2.5" fill="#e0e7ff"/>
</svg>
